<?xml version="1.0" encoding="utf-8"?>
<!-- Generator: Adobe Illustrator 23.1.1, SVG Export Plug-In . SVG Version: 6.00 Build 0)  -->
<svg version="1.1" id="Layer_1" xmlns="http://www.w3.org/2000/svg" xmlns:xlink="http://www.w3.org/1999/xlink" x="0px" y="0px"
	 viewBox="0 0 579.5 133.7" style="enable-background:new 0 0 579.5 133.7;" xml:space="preserve">
<style type="text/css">
	.st0{enable-background:new    ;}
	.st1{fill:#FF0000;}
	.st2{fill:#40A8FF;}
	.st3{fill:#FFFFFF;}
</style>
<g>
	<g class="st0">
		<path class="st1" d="M483.8,108.5h11.7c2.9,0,5.1,0.7,6.6,2.2c1.1,1.2,1.7,2.6,1.7,4.3v0.1c0,0.7-0.1,1.4-0.3,1.9
			c-0.2,0.6-0.4,1-0.7,1.5c-0.3,0.4-0.6,0.8-1,1.2s-0.8,0.6-1.3,0.9c1.5,0.6,2.6,1.3,3.4,2.2s1.3,2.3,1.3,3.9v0.1
			c0,1.2-0.2,2.2-0.7,3c-0.4,0.9-1.1,1.6-1.9,2.2c-0.8,0.6-1.8,1-3,1.3s-2.4,0.4-3.9,0.4h-12V108.5z M498.4,115.9
			c0-0.8-0.3-1.5-0.9-1.9s-1.5-0.7-2.7-0.7h-5.5v5.3h5.1c1.2,0,2.2-0.2,2.9-0.6C498,117.6,498.4,117,498.4,115.9L498.4,115.9z
			 M499.8,126c0-0.8-0.3-1.5-1-2c-0.6-0.5-1.7-0.7-3.1-0.7h-6.4v5.5h6.6c1.2,0,2.2-0.2,2.9-0.7C499.4,127.7,499.8,127,499.8,126
			L499.8,126z"/>
		<path class="st1" d="M509.8,108.5h19v4.9h-13.5v5.1h11.9v4.9h-11.9v5.3H529v4.9h-19.2V108.5z"/>
		<path class="st1" d="M539.8,113.6h-7.7v-5.1H553v5.1h-7.7v20.1h-5.5V113.6z"/>
		<path class="st1" d="M565.9,108.3h5.1l10.8,25.4H576l-2.3-5.7h-10.7l-2.3,5.7h-5.7L565.9,108.3z M571.8,123.1l-3.3-8.2l-3.3,8.2
			H571.8z"/>
	</g>
	<g>
		<g>
			<path class="st2" d="M505.9,92.8h-10.6V16.3h-10.1V6.2h20.7V92.8L505.9,92.8z"/>
			<path class="st2" d="M548,94.3c-14.8,0-29.9-8.1-32.1-25.7h10.5c2,9.2,9.8,15.6,21.7,15.6c12.5,0,20.8-8.9,20.8-21.1
				c0-6.2-2-11.6-6.4-15.3c-5.4-4.6-12.8-6.6-24.8-5.1l18.1-26.3h-34V6.2h54.6l-19.7,27.7c13.5,3,22.7,14.1,22.7,29.2
				C579.5,81.4,566.1,94.3,548,94.3z"/>
		</g>
		<g>
			<path class="st3" d="M136.1,92.8h-10.2V82.4c-4.5,6.6-12.7,12-22.2,12c-18.5,0-32.2-15.1-32.2-33.7s13.7-33.8,32.2-33.8
				c9.5,0,17.7,5.4,22.2,11.8V28.6h10.2V92.8L136.1,92.8z M103.7,37c-12.1,0-21.6,10.7-21.6,23.8c0,12.9,9.5,23.5,21.6,23.5
				c11.9,0,21.8-10.6,21.8-23.5C125.5,47.8,115.5,37,103.7,37z"/>
			<path class="st3" d="M211.1,92.8h-10.2V82.4c-4.5,6.6-12.7,12-22.2,12c-18.5,0-32.2-15.1-32.2-33.6c0-18.7,13.7-33.9,32.2-33.9
				c9.2,0,17.2,5.1,21.8,11.3V0h10.6L211.1,92.8L211.1,92.8z M178.6,37C166.5,37,157,47.7,157,60.8c0,12.9,9.5,23.5,21.6,23.5
				c11.9,0,21.8-10.6,21.8-23.5C200.5,47.8,190.5,37,178.6,37z"/>
			<path class="st3" d="M284.7,72.8c-4.5,13.7-15.5,21.5-30.3,21.5c-18.5,0-32.9-14.7-32.9-33.6c0-18.6,14.5-33.8,32.3-33.8
				c16.6,0,32.6,13.7,32.4,36.6h-54c1.4,13.4,11.6,21.2,22.2,21.2c9.1,0,15.6-4.4,19.1-11.9H284.7z M274.4,54
				c-2.6-10.5-11.4-17.5-20.7-17.5c-8.9,0-18.2,6.5-21,17.5H274.4z"/>
			<path class="st3" d="M349.6,92.8h-10.5v-39c0-9.8-5.5-17.1-15.7-17.1c-9.7,0-16.8,7.2-16.8,16.8v39.3H296V28.6h10.2v7
				c4.4-5.4,11-8.6,18.7-8.6c15.7,0,24.7,11.2,24.7,27.2L349.6,92.8L349.6,92.8z"/>
			<path class="st3" d="M479.8,72.8c-4.5,13.7-15.5,21.5-30.3,21.5c-18.5,0-32.9-14.7-32.9-33.6c0-18.6,14.5-33.8,32.3-33.8
				c16.6,0,32.6,13.7,32.4,36.6h-54c1.4,13.4,11.6,21.2,22.2,21.2c9.1,0,15.6-4.4,19.1-11.9H479.8z M469.6,54
				c-2.6-10.5-11.3-17.5-20.7-17.5c-8.9,0-18.2,6.5-21,17.5H469.6z"/>
			<path class="st3" d="M64.3,75.5c-5.6,5.4-13,8.5-21.4,8.5c-17.8,0-32.4-15.8-32.4-34.9s14.6-34.9,32.4-34.9
				c8.9,0,16.1,3.2,21.4,8.3V9.6C58.2,6.1,51,4.1,42.9,4.1C19.2,4.1,0,24.3,0,49.1c0,25,19.2,45.2,42.9,45.2
				c7.9,0,15.2-2.1,21.4-5.8V75.5z"/>
			<path class="st3" d="M408.2,76.5c-3.8,4.8-9.4,7.7-16.3,7.7c-11.9,0-21.6-10.5-21.6-23.5S380.1,37,391.9,37
				c6.8,0,12.5,2.9,16.3,7.8V31.3c-4.7-2.8-10.2-4.3-16.3-4.3c-17.7,0-32.2,15.2-32.2,33.8s14.5,33.6,32.2,33.6
				c6.1,0,11.6-1.5,16.3-4.3L408.2,76.5L408.2,76.5z"/>
		</g>
	</g>
</g>
</svg>
